<?xml version="1.0" encoding="utf-8"?>
<!-- Generator: Adobe Illustrator 15.0.0, SVG Export Plug-In . SVG Version: 6.00 Build 0)  -->
<!DOCTYPE svg PUBLIC "-//W3C//DTD SVG 1.1//EN" "http://www.w3.org/Graphics/SVG/1.1/DTD/svg11.dtd">
<svg version="1.1" id="Capa_1" xmlns="http://www.w3.org/2000/svg" xmlns:xlink="http://www.w3.org/1999/xlink" x="0px" y="0px"
	 width="161px" height="61.2px" viewBox="-70 0 161 61.2" enable-background="new -70 0 161 61.2" xml:space="preserve">
<path opacity="0.57" fill="#E8E9EA" d="M13.782,13.341c-0.014,1.065-0.14,1.556-1.303,1.289c0,0-1.4-0.196-3.109-1.345
	c-1.653-1.121-2.297-2.157-2.312-3.18C7.045,9.055,7.717,8.018,9.384,6.94c1.583-1.022,3.068-1.373,3.068-1.373
	c1.05-0.322,1.232,0.07,1.274,1.232l0.042,0.926c0.056,1.148-0.126,1.512-0.477,1.526c-0.518,0.028-1.429-0.687-2.549-0.687
	c-1.289,0-2.269,0.631-2.269,1.484c0,0.841,0.98,1.653,2.255,1.653c1.149,0,2.003-0.7,2.521-0.729
	c0.378-0.028,0.561,0.28,0.546,1.442L13.782,13.341z"/>
<path opacity="0.57" fill="#E8E9EA" d="M21.202,10.498c0,0-0.953,0.406-2.045,0.757c-1.569,0.49-2.549,0.63-2.549,0.63
	c-0.224,0.043-0.406,0.057-0.546,0.043c-0.532-0.028-0.588-0.421-0.686-1.359c-0.126-1.092-0.182-2.186-0.182-3.291
	c0-1.219,0.056-2.451,0.182-3.67c0.056-0.617,0.364-0.926,0.658-0.926c0.252,0.015,0.504,0.267,0.574,0.785
	c0.378,3.012,0.743,5.309,2.494,5.617l2.003,0.35c0.336,0.057,0.504,0.252,0.518,0.463C21.651,10.12,21.496,10.357,21.202,10.498z"
	/>
<path opacity="0.57" fill="#E8E9EA" d="M23.65,14.745c-0.687,0-1.247-2.088-1.247-4.665c0-2.577,0.561-4.665,1.247-4.665
	c0.672,0,1.232,2.088,1.232,4.665C24.882,12.657,24.322,14.745,23.65,14.745z"/>
<path opacity="0.57" fill="#E8E9EA" d="M29.839,11.955c-1.681,0-3.908-1.75-3.908-4.608c0-3.012,2.157-4.679,3.838-4.692
	c1.737-0.014,3.138,1.148,3.586,2.76c0.224,0.799-0.084,1.232-0.854,0.994c-1.079-0.35-2.115-0.686-3.054-0.686
	c-1.317,0-2.312,0.742-2.312,1.624c0,0.868,1.022,1.583,2.325,1.583c0.981,0,1.961-0.266,2.998-0.616
	c0.77-0.253,1.176,0.126,0.938,0.952C32.99,10.625,31.646,11.955,29.839,11.955z"/>
<path opacity="0.57" fill="#E8E9EA" d="M40.802,11.926c-0.196,0-0.462-0.112-0.756-0.351c-0.546-0.448-2.199-2.073-2.787-2.073
	s-1.093,1.387-1.331,1.989c-0.14,0.364-0.392,0.532-0.616,0.519c-0.224,0-0.434-0.211-0.504-0.589c0,0-0.294-2.087-0.294-4.202
	c0-1.891,0.21-3.796,0.21-3.796c0.042-0.477,0.322-0.757,0.616-0.743c0.224,0.015,0.448,0.211,0.575,0.604
	c0.294,0.924,0.77,2.017,1.358,2.017c0.588,0,2.115-1.541,2.872-2.214c0.308-0.266,0.588-0.406,0.813-0.406
	c0.434-0.014,0.603,0.421,0.098,1.163c-0.504,0.771-1.611,2.283-1.611,3.376c0,1.037,1.289,2.941,1.611,3.628
	C41.377,11.505,41.222,11.955,40.802,11.926z"/>
<path opacity="0.57" fill="#E8E9EA" d="M49.367,14.745c-1.344,0-2.998-0.952-3.319-2.353c-0.196-0.827,0.142-1.12,0.995-0.757
	c0.699,0.295,1.541,0.504,2.324,0.574c0.73,0.057,1.178-0.195,1.178-0.518c0-0.238-0.252-0.504-0.826-0.701
	c-2.045-0.699-3.35-1.246-3.559-2.423c-0.322-1.862,1.568-3.151,3.25-3.151c1.021,0,2.844,0.742,3.475,2.479
	c0.293,0.855,0.014,1.191-0.742,0.911c-0.926-0.351-2.215-0.616-2.746-0.645c-0.701-0.028-1.107,0.21-1.121,0.505
	c0,0.252,0.295,0.56,0.953,0.77c2.143,0.701,3.586,1.205,3.684,2.466C53.037,13.583,51.119,14.745,49.367,14.745z"/>
<path opacity="0.57" fill="#E8E9EA" d="M57.615,11.967c-2.199,0-3.992-2.086-3.992-4.664c0-2.563,1.793-4.65,3.992-4.65
	c2.213,0,4.006,2.087,4.006,4.65C61.619,9.881,59.826,11.967,57.615,11.967z M57.615,5.708c-1.541,0-2.789,0.714-2.789,1.597
	c0,0.883,1.248,1.598,2.789,1.598c1.555,0,2.801-0.715,2.801-1.598C60.416,6.421,59.17,5.708,57.615,5.708z"/>
<path opacity="0.57" fill="#E8E9EA" d="M69.641,9.574c-0.35,0.448-0.35,0.729,0.029,1.219c0.252,0.336,0.363,0.645,0.363,0.924
	c0.014,1.121-1.766,1.766-2.814,2.145c-1.877,0.672-3.125,0.783-3.125,0.783c-0.238,0.057-0.447,0.07-0.615,0.057
	c-0.631-0.028-0.814-0.435-0.688-0.98c0.016-0.084,0.363-2.619,0.352-3.586c-0.014-0.98-0.365-3.193-0.379-3.292
	c-0.111-0.911,0.068-1.372,0.715-1.387c0.182-0.015,0.393,0.015,0.645,0.07c0,0,1.357,0.196,3.096,0.812
	c1.148,0.406,2.844,1.135,2.83,2.256C70.047,8.887,69.936,9.224,69.641,9.574z M66.322,8.019c-1.219,0-2.199,0.364-2.199,0.813
	c0,0.449,0.98,0.813,2.199,0.813c1.203,0,2.186-0.364,2.186-0.813C68.508,8.383,67.525,8.019,66.322,8.019z M66.322,10.709
	c-1.205,0-2.186,0.364-2.186,0.813c0,0.434,0.979,0.799,2.186,0.799c1.203,0,2.17-0.365,2.17-0.799
	C68.492,11.073,67.525,10.709,66.322,10.709z"/>
<path opacity="0.57" fill="#E8E9EA" d="M77.537,7.667c-1.205,1.009-1.387,1.681-0.352,3.067c0.238,0.309,0.338,0.589,0.322,0.813
	c-0.014,0.267-0.182,0.435-0.477,0.435c-0.211-0.015-0.49-0.112-0.813-0.337c-0.953-0.686-1.793-1.456-2.592-1.456
	c-0.379,0.015-0.729,0.616-0.867,1.036c-0.154,0.49-0.449,0.771-0.715,0.771c-0.238,0-0.463-0.225-0.52-0.743
	c-0.225-2.017-0.279-4.86-0.182-6.976c0.055-1.078,0.236-1.513,0.84-1.541c0.154-0.014,0.322,0,0.533,0.042
	c0,0,1.471,0.168,3.18,0.995c1.807,0.896,2.395,1.862,2.311,2.689C78.168,6.871,77.986,7.291,77.537,7.667z M74.664,5.624
	c-1.176,0-2.184,0.406-2.213,0.896c-0.041,0.504,0.885,0.91,2.074,0.91s2.186-0.406,2.229-0.91
	C76.795,6.029,75.857,5.624,74.664,5.624z"/>
<path opacity="0.57" fill="#E8E9EA" d="M85.621,8.113h-3.389c-0.885,0-1.346,0.225-1.4,0.49c-0.057,0.309,0.434,0.658,1.498,0.771
	l2.088,0.224c0.574,0.056,0.84,0.321,0.84,0.574c-0.014,0.252-0.295,0.504-0.84,0.56L82.232,11
	c-0.969,0.112-1.457,0.406-1.484,0.673c-0.016,0.279,0.504,0.546,1.582,0.546h3.193c0.322,0,0.504,0.21,0.52,0.448
	c0.014,0.225-0.1,0.477-0.365,0.588c0,0-0.883,0.519-2.52,0.925c-1.584,0.378-2.605,0.462-2.605,0.462
	c-0.154,0.028-0.309,0.043-0.436,0.043c-0.477-0.028-0.742-0.267-0.771-0.658c0-0.099,0-0.197,0.029-0.309
	c0.014-0.084,0.322-2.619,0.322-3.586c-0.016-0.98-0.336-3.193-0.336-3.292c-0.029-0.196-0.029-0.378-0.029-0.532
	c0.043-0.532,0.281-0.799,0.701-0.826c0.152-0.014,0.336,0,0.547,0.042c0,0,1.105,0.168,2.576,0.574
	c1.625,0.462,2.494,1.05,2.494,1.05c0.266,0.154,0.404,0.365,0.42,0.561C86.084,7.931,85.93,8.113,85.621,8.113z"/>
<path opacity="0.57" fill="#E8E9EA" d="M19.473,27.297c0,0-0.953,0.406-2.045,0.756c-1.569,0.49-2.549,0.633-2.549,0.633
	c-0.224,0.041-0.406,0.055-0.546,0.041c-0.532-0.027-0.588-0.42-0.686-1.359c-0.126-1.094-0.182-2.186-0.182-3.292
	c0-1.22,0.056-2.451,0.182-3.671c0.056-0.615,0.364-0.924,0.658-0.924c0.252,0.015,0.504,0.267,0.574,0.785
	c0.378,3.012,0.743,5.309,2.494,5.616l2.003,0.351c0.336,0.057,0.504,0.252,0.518,0.461C19.922,26.918,19.767,27.159,19.473,27.297z
	"/>
<path opacity="0.57" fill="#E8E9EA" d="M27.818,28.741c-0.154-0.014-0.336-0.055-0.546-0.182c-0.07-0.041-2.059-1.164-2.941-1.148
	c-0.896,0-2.9,1.121-2.984,1.162c-0.196,0.113-0.364,0.154-0.532,0.168c-0.448,0-0.742-0.377-0.729-0.951
	c0-0.197,0.042-0.422,0.126-0.658c0,0,0.434-1.431,1.247-3.265c0.896-2.031,2.143-3.824,2.143-3.824
	c0.266-0.394,0.476-0.589,0.687-0.604c0.224-0.014,0.448,0.184,0.742,0.576c0,0,1.191,1.596,2.185,3.822
	c0.883,2.004,1.219,3.32,1.219,3.32c0.084,0.252,0.112,0.49,0.098,0.701C28.518,28.391,28.238,28.741,27.818,28.741z M24.316,23.487
	c-1.135,0-2.073,0.673-2.073,1.611c0,0.924,0.938,1.219,2.073,1.219c1.148,0,2.073-0.295,2.073-1.219
	C26.389,24.16,25.464,23.487,24.316,23.487z"/>
<path opacity="0.57" fill="#E8E9EA" d="M34.815,28.811c-0.687,0-1.247-2.088-1.247-4.666c0-2.576,0.561-4.664,1.247-4.664
	c0.672,0,1.232,2.088,1.232,4.664C36.047,26.723,35.487,28.811,34.815,28.811z"/>
<path opacity="0.57" fill="#E8E9EA" d="M45.25,25.807c-0.056,0.393-0.336,0.602-0.588,0.588c-0.237-0.016-0.448-0.209-0.504-0.604
	l-0.421-3.361c-0.042-0.365-0.21-0.631-0.42-0.645c-0.182-0.016-0.379,0.154-0.49,0.588c-0.938,3.263-1.148,4.021-1.625,4.021
	c-0.476,0-0.686-0.729-1.611-4.021c-0.126-0.434-0.336-0.616-0.518-0.604c-0.224,0.028-0.406,0.295-0.448,0.66l-0.364,3.347
	c-0.042,0.42-0.308,0.615-0.561,0.615c-0.238-0.014-0.476-0.195-0.518-0.588c0,0-0.238-1.723-0.308-3.824
	c-0.056-1.892,0.028-3.811,0.028-3.811c0-0.729,0.266-1.12,0.63-1.12c0.224,0,0.504,0.153,0.756,0.49
	c0.336,0.446,1.107,2.198,2.9,2.198c1.849,0,2.731-1.807,2.997-2.198c0.238-0.337,0.49-0.49,0.716-0.49
	c0.336,0.015,0.588,0.406,0.588,1.12c0,0,0.069,1.919,0.015,3.811C45.446,24.084,45.25,25.807,45.25,25.807z"/>
<path opacity="0.57" fill="#E8E9EA" d="M54.754,28.741c-0.154-0.014-0.336-0.055-0.547-0.182c-0.07-0.041-2.059-1.164-2.941-1.148
	c-0.896,0-2.898,1.121-2.982,1.162c-0.195,0.113-0.363,0.154-0.531,0.168c-0.449,0-0.744-0.377-0.73-0.951
	c0-0.197,0.043-0.422,0.127-0.658c0,0,0.434-1.431,1.246-3.265c0.895-2.031,2.143-3.824,2.143-3.824
	c0.268-0.394,0.479-0.589,0.688-0.604c0.225-0.014,0.449,0.184,0.742,0.576c0,0,1.189,1.596,2.186,3.822
	c0.883,2.004,1.219,3.32,1.219,3.32c0.084,0.252,0.111,0.49,0.1,0.701C55.453,28.391,55.174,28.741,54.754,28.741z M51.252,23.487
	c-1.135,0-2.072,0.673-2.072,1.611c0,0.924,0.938,1.219,2.072,1.219c1.148,0,2.072-0.295,2.072-1.219
	C53.324,24.16,52.4,23.487,51.252,23.487z"/>
<path opacity="0.57" fill="#E8E9EA" d="M62.998,25.504c-0.125,0.604-0.363,0.869-0.951,0.869h-0.268
	c-3.234,0-5.979-1.752-5.979-4.609c0-3.012,2.1-4.678,3.695-4.691c1.641-0.016,2.689,0.98,3.293,2.115
	c0.393,0.729,0.125,1.093-0.615,0.966c-1.064-0.168-1.473-0.406-2.594-0.421c-1.021,0-2.576,0.658-2.576,2.019
	c0,1.358,1.598,2.144,2.83,2.144c1.203-0.015,1.975-0.351,1.975-0.715c0-0.322-0.336-0.447-0.967-0.545l-1.709-0.296
	c-0.965-0.168-0.854-1.092,0.127-1.147c0.645-0.043,1.555-0.084,3.516-0.084c0.436,0,0.588,0.309,0.604,0.645
	C63.42,22.829,63.252,24.383,62.998,25.504z"/>
<path opacity="0.57" fill="#E8E9EA" d="M70.924,22.158h-3.391c-0.883,0-1.346,0.224-1.4,0.489c-0.057,0.309,0.434,0.658,1.498,0.771
	l2.088,0.224c0.574,0.057,0.84,0.322,0.84,0.574c-0.014,0.252-0.293,0.504-0.84,0.561l-2.186,0.267
	c-0.967,0.112-1.457,0.406-1.484,0.672c-0.016,0.281,0.504,0.547,1.582,0.547h3.193c0.322,0,0.504,0.21,0.52,0.448
	c0.014,0.225-0.1,0.477-0.363,0.59c0,0-0.883,0.518-2.521,0.924c-1.582,0.379-2.605,0.463-2.605,0.463
	c-0.154,0.027-0.309,0.041-0.434,0.041c-0.479-0.027-0.742-0.266-0.771-0.658c0-0.098,0-0.195,0.027-0.309
	c0.014-0.084,0.322-2.619,0.322-3.586c-0.016-0.98-0.336-3.193-0.336-3.292c-0.027-0.196-0.027-0.378-0.027-0.532
	c0.041-0.531,0.279-0.798,0.699-0.826c0.154-0.015,0.336,0,0.547,0.043c0,0,1.105,0.168,2.578,0.574
	c1.625,0.461,2.492,1.051,2.492,1.051c0.266,0.154,0.406,0.363,0.42,0.561C71.387,21.975,71.232,22.158,70.924,22.158z"/>
<path opacity="0.57" fill="#E8E9EA" d="M79.281,25.057c-0.084,0.953-0.336,1.33-0.686,1.316c-0.309,0-0.688-0.322-1.078-0.799
	c-1.682-2.072-2.508-3.151-3.055-3.151c-0.674,0-0.59,2.129-0.615,2.409l-0.084,1.051c-0.029,0.365-0.268,0.533-0.506,0.533
	c-0.266,0-0.545-0.211-0.615-0.604c0,0-0.295-2.087-0.295-4.203c0-1.892,0.168-3.613,0.168-3.613
	c0.043-0.519,0.211-0.91,0.561-0.938c0.225-0.015,0.52,0.14,0.91,0.531c0.91,0.938,2.619,3.024,3.098,3.024
	c0.518,0,0.715-1.246,0.895-2.969c0.043-0.418,0.336-0.615,0.617-0.615c0.266,0.016,0.518,0.211,0.561,0.562
	c0,0,0.225,1.737,0.225,3.824C79.379,22.606,79.395,23.84,79.281,25.057z"/>
<g>
	<g>
		<path fill="#2E5995" d="M-28.889,29.968c-1.91,2.597-4.807,5.549-10.061,6.856c2.35,0.74,4.738,1.373,7.168,1.811
			c1.214,0.221,2.435,0.398,3.666,0.527c0.617,0.058,1.233,0.115,1.85,0.15l2.061,0.119l53.959,3.005l8.9,0.501
			c0.411-0.076,2.931-1.122,5.653-2.357c2.699-1.239,5.566-2.675,6.125-3.766c13.461,1.492,25.208,3.53,35.623,4.309
			c-0.806,1.977-2.513,3.753-5.356,5.05c-2.832,1.303-6.79,2.117-11.712,2.243c4.423,1.286,7.872,2.984,10.411,4.854
			c2.52,1.871,4.14,3.919,4.404,5.92c-14.215-1.127-26.5-3.314-37.465-4.479c-0.021-1.199-1.826-3.184-3.813-4.847
			c-1.972-1.663-4.155-2.999-4.294-3.04l-8.695-0.487l-53.96-3.005l-2.134-0.123c-0.782-0.047-1.561-0.116-2.338-0.192
			c-1.551-0.161-3.086-0.383-4.584-0.654c-3.006-0.537-5.832-1.292-8.499-2.126c1.326,3.352,1.733,7.183,0.493,9.708
			c-9.565-7.104-12.08-14.083-21.434-20.076c6.59,1.154,13.201,2.087,19.287,2.249C-37.577,32.303-32.12,31.6-28.889,29.968z
			 M-43.516,37.487L-43.516,37.487"/>
	</g>
</g>
</svg>
